<?xml version="1.0" standalone="no"?>
<!DOCTYPE svg PUBLIC "-//W3C//DTD SVG 20010904//EN"
 "http://www.w3.org/TR/2001/REC-SVG-20010904/DTD/svg10.dtd">
<svg version="1.0" xmlns="http://www.w3.org/2000/svg"
 width="310.000000pt" height="310.000000pt" viewBox="0 0 310.000000 310.000000"
 preserveAspectRatio="xMidYMid meet">
<metadata>
Created by potrace 1.14, written by Peter Selinger 2001-2017
</metadata>
<g transform="translate(0.000000,310.000000) scale(0.100000,-0.100000)"
fill="#000000" stroke="none">
<path d="M253 3087 c-13 -22 -56 -47 -79 -47 -43 0 -47 -19 -52 -243 l-4 -212
25 -38 c24 -35 27 -75 5 -61 -5 3 -7 12 -4 20 6 15 -10 29 -18 15 -3 -5 3 -20
14 -34 26 -33 25 -47 -2 -39 -20 5 -21 3 -14 -44 4 -27 11 -74 15 -104 4 -30
15 -72 24 -94 9 -21 17 -59 17 -85 0 -25 9 -66 20 -90 11 -24 20 -53 20 -64 0
-18 23 -78 50 -129 5 -9 12 -47 16 -85 7 -69 26 -123 44 -123 6 0 10 -6 10
-14 0 -7 7 -19 15 -26 25 -21 17 -49 -18 -70 -31 -18 -41 -35 -82 -134 -16
-37 -15 -42 1 -80 10 -23 36 -67 57 -98 22 -32 43 -75 48 -95 4 -21 11 -49 15
-62 6 -20 4 -23 -10 -18 -9 4 -36 -2 -59 -12 -23 -11 -66 -27 -95 -36 -51 -16
-68 -42 -25 -38 11 1 27 -5 36 -15 14 -15 13 -21 -6 -64 -12 -26 -27 -48 -34
-48 -18 0 -63 -64 -63 -88 0 -16 6 -22 21 -22 18 0 19 -3 9 -15 -7 -8 -10 -22
-6 -30 3 -9 0 -15 -9 -15 -12 0 -15 -21 -15 -115 0 -63 3 -115 8 -115 4 0 15
19 24 41 10 24 26 43 38 46 11 3 20 13 20 22 0 9 9 34 21 55 11 22 16 42 11
45 -5 3 -9 13 -10 21 0 8 -4 25 -7 37 -4 13 -3 23 3 23 17 0 35 -29 28 -46 -4
-10 -2 -14 6 -11 7 2 12 10 10 17 -6 26 10 50 34 50 13 0 24 -6 24 -13 0 -19
33 -47 53 -47 9 0 17 -7 17 -15 0 -19 16 -19 24 0 3 8 14 15 24 15 10 0 25 11
32 25 8 14 22 25 34 25 12 0 27 9 34 20 16 26 42 26 49 -1 3 -12 11 -18 19
-15 16 6 20 -29 4 -39 -7 -4 -6 -13 1 -27 7 -12 9 -41 6 -70 -4 -30 -2 -46 4
-43 15 10 23 -24 10 -51 -9 -20 -8 -27 9 -41 24 -21 25 -49 4 -113 l-16 -48
-69 3 c-47 2 -76 8 -88 19 -19 17 -43 4 -35 -19 3 -7 -6 -29 -19 -49 l-25 -36
18 -47 c11 -29 25 -49 36 -52 25 -5 45 -32 40 -54 -7 -27 4 -47 24 -47 21 0
30 19 30 66 0 40 24 47 34 10 4 -16 15 -25 37 -30 50 -10 59 -7 71 19 6 14 17
25 24 25 7 0 18 9 24 20 6 11 8 20 4 20 -10 0 51 57 67 62 12 4 12 9 0 30 -10
19 -10 31 -2 46 12 23 6 48 -15 56 -17 7 -19 60 -1 74 6 6 24 13 38 17 36 9
71 -34 64 -79 -9 -64 -18 -92 -35 -111 -20 -23 -32 -56 -34 -98 -1 -20 -11
-37 -29 -51 -25 -18 -28 -19 -39 -3 -8 11 -18 14 -26 8 -11 -7 -11 -11 2 -24
9 -8 16 -25 16 -36 0 -18 6 -21 46 -21 39 0 45 3 40 16 -6 14 -1 16 36 10 24
-4 44 -11 46 -16 2 -6 31 -10 65 -10 60 0 62 1 64 26 3 63 57 66 83 4 l12 -30
189 0 189 0 0 64 c0 72 6 96 25 96 19 0 25 -24 25 -96 l0 -64 705 0 705 0 0
121 c0 84 -3 118 -11 113 -6 -4 -8 -20 -4 -40 4 -24 2 -34 -6 -34 -7 0 -21 -8
-31 -17 -25 -22 -37 -8 -42 47 -5 62 15 103 58 118 l36 13 0 70 c0 38 -4 69
-9 69 -14 0 -23 -33 -10 -40 8 -6 8 -9 0 -14 -8 -5 -8 -13 0 -27 13 -26 4 -36
-16 -19 -11 9 -14 22 -10 39 6 25 6 25 -9 6 -8 -11 -16 -30 -16 -42 0 -14 -6
-23 -15 -23 -9 0 -20 -11 -25 -25 -5 -14 -14 -25 -20 -25 -5 0 -10 -11 -10
-24 0 -13 -7 -29 -15 -36 -21 -18 -19 -35 8 -47 15 -7 26 -26 35 -59 7 -27 20
-57 29 -67 27 -29 4 -38 -98 -35 l-94 3 0 69 c0 66 1 70 30 86 33 18 59 86 49
126 -8 30 -40 58 -59 51 -17 -7 -21 -52 -5 -62 17 -11 11 -43 -14 -72 -20 -24
-26 -25 -40 -14 -9 7 -16 19 -16 26 0 8 -8 26 -17 43 -19 34 -12 62 17 62 21
0 29 29 8 32 -20 2 -50 5 -79 7 -21 1 -28 7 -32 29 -3 15 -11 47 -17 72 -10
40 -9 47 7 60 16 13 18 26 15 91 -3 56 0 84 12 107 9 17 16 42 16 56 0 14 4
28 10 31 5 3 10 15 10 26 0 27 46 26 53 -1 3 -11 14 -20 25 -20 11 0 27 -12
37 -26 14 -21 21 -24 47 -19 28 6 29 6 19 -13 -6 -12 -7 -23 -2 -26 5 -3 11 1
15 9 3 8 11 15 18 15 15 0 108 98 108 115 0 7 -7 18 -15 25 -18 15 -20 42 -2
38 28 -7 20 18 -11 31 -19 9 -35 25 -38 38 -6 21 -10 23 -59 17 -30 -4 -61 -4
-69 -1 -21 8 -9 35 17 39 11 2 22 9 25 15 5 18 -18 16 -39 -3 -14 -13 -24 -14
-51 -5 -18 6 -46 13 -62 16 -17 4 -45 22 -63 41 -26 28 -33 44 -33 74 0 21 5
42 10 45 6 3 10 15 10 25 0 11 14 43 31 72 74 127 113 137 227 58 40 -27 72
-46 72 -42 0 17 -43 71 -111 141 -38 38 -72 121 -62 149 4 9 26 44 50 77 65
90 67 124 7 125 -19 0 -34 19 -48 63 -7 20 20 73 41 81 20 8 27 -13 10 -32
-22 -26 -29 -68 -13 -82 12 -9 17 -7 25 7 6 12 6 25 0 34 -13 21 -11 39 5 39
7 0 17 -10 21 -22 6 -21 7 -20 16 11 6 20 7 37 1 43 -14 14 -2 58 17 58 24 0
41 20 41 47 0 12 9 46 19 75 19 54 36 142 32 167 -1 7 5 31 13 52 9 22 12 39
6 39 -6 0 -10 10 -10 23 0 39 -15 51 -55 44 -38 -6 -94 -51 -95 -74 0 -7 -4
-13 -9 -13 -19 0 -90 44 -95 59 -3 9 -9 22 -12 29 -4 7 2 12 16 12 15 0 20 -5
17 -14 -8 -21 4 -28 18 -9 10 13 9 20 -4 35 -8 10 -21 18 -28 18 -24 0 -13 16
12 18 19 1 25 -2 23 -15 -4 -25 29 -28 37 -4 3 12 13 21 21 21 8 0 14 5 14 10
0 6 -4 10 -10 10 -5 0 -19 9 -29 19 -19 19 -19 19 0 24 10 3 19 13 19 24 0 10
9 24 20 31 11 7 20 19 20 28 0 8 4 13 9 10 27 -17 94 55 77 83 -4 6 0 21 9 34
8 14 15 37 15 53 0 16 1 36 1 44 1 8 -1 26 -6 40 -8 25 -7 25 13 6 36 -31 52
-15 52 54 l0 60 -1360 0 c-1110 0 -1360 -2 -1367 -13z m1312 -40 c3 -12 5 -58
3 -102 -3 -72 -5 -80 -23 -80 -18 0 -20 8 -23 80 -3 93 3 125 23 125 8 0 17
-10 20 -23z m960 -24 c-8 -55 -13 -63 -25 -43 -14 21 -12 64 2 78 23 23 30 12
23 -35z m205 40 c0 -4 -10 -17 -22 -31 l-23 -23 24 -18 c23 -17 23 -18 4 -23
-14 -4 -23 -17 -27 -42 -4 -20 -11 -36 -16 -36 -6 0 -10 -11 -10 -24 0 -24 23
-41 41 -30 5 3 9 -1 9 -9 0 -8 -7 -17 -15 -21 -8 -3 -15 -12 -15 -20 0 -9 -9
-20 -19 -26 -23 -12 -51 -4 -51 15 0 7 -9 24 -20 38 -22 28 -27 96 -8 115 8 8
8 15 0 24 -7 9 -6 18 4 33 8 10 12 27 9 36 -4 13 2 19 24 24 17 4 33 11 36 16
7 10 75 13 75 2z m-484 -17 c19 -15 19 -15 -1 -53 -33 -63 -122 -77 -136 -22
-7 31 7 64 35 77 31 15 79 14 102 -2z m-1314 -33 c40 -15 114 -65 131 -88 19
-26 18 -59 -3 -110 -27 -67 -63 -99 -103 -91 -61 12 -177 113 -177 153 0 49
65 141 107 152 2 1 22 -7 45 -16z m-288 -156 c16 -16 27 -44 35 -89 19 -111
17 -124 -30 -155 -98 -64 -215 0 -234 129 -14 92 36 134 163 137 32 1 49 -5
66 -22z m1673 -23 c34 -15 45 -37 45 -90 0 -42 -36 -119 -73 -153 -23 -22 -26
-32 -22 -68 3 -24 9 -43 13 -43 5 0 6 16 3 35 -7 45 7 61 63 70 56 8 87 -10
110 -63 22 -54 33 -122 24 -148 -19 -48 -105 -29 -160 35 -20 23 -38 41 -42
41 -4 0 -10 -15 -13 -32 -12 -54 -33 -87 -77 -118 -28 -21 -48 -28 -62 -24
-47 14 -87 38 -98 58 -17 31 -11 238 9 287 16 42 33 51 33 19 0 -33 60 -87
103 -94 31 -4 37 -3 28 8 -6 8 -24 16 -39 19 -15 3 -38 16 -51 28 -22 20 -23
26 -16 97 9 92 30 141 65 148 14 3 30 7 35 9 17 5 88 -7 122 -21z m500 -76
c-3 -8 -6 -5 -6 6 -1 11 2 17 5 13 3 -3 4 -12 1 -19z m-238 -5 c3 -2 0 -8 -6
-14 -16 -16 -47 -7 -51 14 -3 15 1 17 25 11 15 -4 30 -9 32 -11z m171 -12 c0
-6 -4 -13 -10 -16 -5 -3 -10 1 -10 9 0 9 5 16 10 16 6 0 10 -4 10 -9z m-2560
-15 c0 -3 -4 -8 -10 -11 -5 -3 -10 -1 -10 4 0 6 5 11 10 11 6 0 10 -2 10 -4z
m70 -11 c13 -15 6 -35 -13 -35 -7 0 -12 11 -12 25 0 28 7 31 25 10z m2480 -25
c0 -5 -7 -10 -16 -10 -8 0 -12 5 -9 10 3 6 10 10 16 10 5 0 9 -4 9 -10z m-144
-37 c-11 -11 -19 6 -11 24 8 17 8 17 12 0 3 -10 2 -21 -1 -24z m89 6 c-4 -5
-18 -9 -33 -9 l-27 0 25 14 c26 13 44 11 35 -5z m-2425 1 c0 -5 -4 -10 -10
-10 -5 0 -10 5 -10 10 0 6 5 10 10 10 6 0 10 -4 10 -10z m-67 -25 c-5 -13 -23
-22 -23 -11 0 15 14 35 21 31 4 -3 6 -12 2 -20z m139 1 c16 -11 16 -15 3 -32
-15 -18 -15 -18 -29 -1 -8 11 -12 25 -9 33 6 17 13 17 35 0z m1236 -71 c3 -92
-3 -125 -22 -125 -21 0 -26 23 -26 114 0 86 4 99 30 94 12 -3 16 -20 18 -83z
m-1278 11 c0 -24 -16 -43 -27 -32 -8 8 6 56 17 56 6 0 10 -11 10 -24z m512
-10 c11 -16 10 -81 -3 -113 -29 -78 -134 -129 -180 -88 -22 21 -19 55 13 142
26 70 49 86 113 77 28 -3 53 -12 57 -18z m1813 4 c3 -5 13 -6 23 -3 15 6 15 4
4 -10 -15 -17 -53 -10 -60 11 -4 14 24 16 33 2z m-2425 -10 c0 -5 -7 -10 -15
-10 -8 0 -15 5 -15 10 0 6 7 10 15 10 8 0 15 -4 15 -10z m150 0 c0 -5 -4 -10
-10 -10 -5 0 -10 5 -10 10 0 6 5 10 10 10 6 0 10 -4 10 -10z m160 0 c0 -5 -4
-10 -10 -10 -5 0 -10 5 -10 10 0 6 5 10 10 10 6 0 10 -4 10 -10z m-70 -45 c0
-17 -26 -55 -46 -66 -31 -16 -40 -6 -25 27 9 21 14 24 26 14 12 -10 15 -9 15
9 0 12 6 21 15 21 8 0 15 -2 15 -5z m-90 -85 c0 -5 -4 -10 -10 -10 -5 0 -10 5
-10 10 0 6 5 10 10 10 6 0 10 -4 10 -10z m-90 -81 c0 -6 -4 -7 -10 -4 -5 3
-10 11 -10 16 0 6 5 7 10 4 6 -3 10 -11 10 -16z m2620 12 c0 -12 -20 -25 -27
-18 -7 7 6 27 18 27 5 0 9 -4 9 -9z m-2258 -52 c30 -16 36 -41 26 -104 -5 -33
-13 -64 -19 -69 -5 -6 -9 -16 -9 -24 0 -43 -90 -56 -146 -21 -22 14 -37 32
-44 57 -13 50 -13 60 9 107 31 68 46 78 110 70 31 -4 64 -11 73 -16z m239 -42
c25 -55 24 -82 -3 -101 -48 -34 -111 -8 -127 51 -13 47 1 81 41 98 43 17 64 6
89 -48z m-591 38 c0 -8 -4 -15 -10 -15 -5 0 -10 7 -10 15 0 8 5 15 10 15 6 0
10 -7 10 -15z m2302 4 c29 -7 51 -26 91 -77 30 -37 57 -75 61 -86 13 -36 -60
-119 -168 -193 -80 -55 -138 -40 -204 50 -44 62 -62 99 -62 133 0 35 79 107
164 149 78 40 70 38 118 24z m288 -5 c0 -8 -4 -12 -10 -9 -5 3 -10 10 -10 16
0 5 5 9 10 9 6 0 10 -7 10 -16z m-2552 -52 c8 -24 6 -29 -14 -39 -23 -10 -24
-9 -24 21 0 53 22 63 38 18z m2537 -10 c2 -26 -1 -32 -12 -28 -8 3 -18 6 -22
6 -4 0 -7 10 -5 23 1 12 3 26 3 30 1 5 8 7 17 5 11 -2 18 -15 19 -36z m-1276
-16 c8 -9 11 -46 9 -103 -3 -80 -5 -88 -23 -88 -18 0 -20 8 -23 80 -4 113 7
147 37 111z m694 -164 c9 -10 25 -38 36 -63 17 -38 19 -52 10 -85 -14 -48 -29
-67 -77 -88 -34 -15 -41 -16 -74 -2 -31 13 -39 23 -57 78 -38 112 -23 156 57
169 67 11 89 9 105 -9z m-1963 -44 c0 -19 -25 -25 -35 -8 -3 5 -3 21 1 36 7
26 8 26 20 9 8 -11 14 -27 14 -37z m100 -76 c0 -32 -30 -82 -49 -82 -12 0 -24
-1 -28 -2 -12 -5 -22 75 -11 95 13 26 30 10 23 -22 -6 -29 17 -62 30 -42 8 15
-13 88 -28 94 -9 4 -8 8 3 16 12 9 20 5 37 -17 13 -15 23 -33 23 -40z m2171
-118 c44 -40 99 -133 99 -168 0 -31 -25 -82 -61 -124 -16 -19 -89 -10 -174 21
-129 48 -215 136 -186 189 18 34 90 74 176 99 47 13 123 4 146 -17z m-997 -20
c9 -24 7 -167 -3 -183 -5 -8 -16 -11 -25 -8 -13 5 -16 23 -16 100 0 52 3 97 7
100 11 12 31 7 37 -9z m-927 -41 c18 -13 37 -32 42 -41 15 -29 5 -80 -24 -117
-44 -58 -136 -107 -152 -82 -16 24 -33 83 -33 112 0 39 28 114 54 143 25 28
64 23 113 -15z m1546 -40 c8 -10 27 -52 41 -93 36 -101 25 -145 -57 -242 -72
-85 -107 -93 -134 -29 -7 14 -19 44 -28 66 -9 22 -17 68 -18 102 -1 55 3 68
30 105 35 50 107 108 132 108 10 0 25 -8 34 -17z m265 -240 c56 -32 62 -39 62
-76 0 -104 -51 -167 -143 -175 -43 -3 -57 0 -80 18 -38 30 -49 61 -36 102 17
50 40 100 61 131 26 36 74 36 136 0z m-1991 -85 c61 -93 54 -173 -20 -202 -40
-16 -42 -16 -79 10 -25 18 -41 39 -48 63 -15 56 -12 109 8 126 9 7 28 23 42
34 36 30 61 22 97 -31z m1113 -93 c0 -91 -5 -115 -25 -115 -20 0 -25 24 -25
114 0 86 12 115 37 95 9 -8 13 -38 13 -94z m634 -11 c32 -32 9 -96 -41 -115
-59 -22 -80 20 -49 96 12 29 20 35 45 35 16 0 37 -7 45 -16z m294 -115 c44
-55 31 -191 -20 -223 -26 -16 -47 1 -85 64 -48 78 -44 113 20 187 23 26 49 17
85 -28z m-1794 0 c39 -55 37 -96 -7 -167 -30 -48 -40 -57 -64 -57 -43 0 -65
51 -60 138 4 58 9 73 33 98 38 40 63 37 98 -12z m225 -92 c29 -68 35 -120 17
-156 -22 -42 -21 -44 20 -38 68 11 78 -7 44 -81 -30 -66 -97 -80 -122 -27 -9
19 -7 30 6 49 26 41 21 48 -29 41 -40 -7 -47 -4 -75 23 -27 27 -30 37 -30 91
l0 61 51 40 c68 54 94 53 118 -3z m1344 12 c57 -41 70 -69 62 -131 -10 -74
-43 -102 -107 -94 -27 4 -48 4 -48 0 0 -3 7 -18 16 -34 33 -55 -1 -97 -64 -81
-33 9 -64 63 -60 106 3 29 4 30 51 27 l48 -4 -16 33 c-21 39 -16 115 11 172
22 47 49 48 107 6z m-1927 -157 c-4 -3 -11 -1 -18 6 -8 8 -8 15 3 28 13 16 14
16 17 -5 2 -13 1 -25 -2 -29z m1218 32 c9 -24 7 -167 -3 -183 -5 -8 -16 -11
-25 -8 -13 5 -16 23 -16 100 0 52 3 97 7 100 11 12 31 7 37 -9z m-1051 -29
c20 -20 37 -40 37 -45 0 -17 -20 -11 -43 13 -20 21 -70 43 -89 39 -10 -2 -10
12 -1 21 17 17 61 4 96 -28z m2164 18 c3 -7 -11 -15 -33 -19 -21 -4 -47 -18
-60 -33 -16 -19 -26 -23 -34 -15 -17 17 66 86 99 82 13 -2 26 -8 28 -15z m85
-15 c-15 -15 -26 -4 -18 18 5 13 9 15 18 6 9 -9 9 -15 0 -24z m-2477 -68 c0
-7 -6 -15 -12 -17 -8 -3 -13 4 -13 17 0 13 5 20 13 18 6 -3 12 -11 12 -18z
m345 5 c0 -8 -7 -15 -15 -15 -8 0 -15 7 -15 15 0 8 7 15 15 15 8 0 15 -7 15
-15z m1864 6 c3 -5 -1 -14 -8 -20 -16 -13 -32 2 -21 19 8 12 22 13 29 1z m344
-15 c3 -12 -1 -17 -10 -14 -7 3 -15 13 -16 22 -3 12 1 17 10 14 7 -3 15 -13
16 -22z m-2498 4 c0 -5 -7 -10 -15 -10 -8 0 -15 5 -15 10 0 6 7 10 15 10 8 0
15 -4 15 -10z m2440 0 c0 -5 -4 -10 -10 -10 -5 0 -10 5 -10 10 0 6 5 10 10 10
6 0 10 -4 10 -10z m-2370 -25 c0 -8 -4 -15 -9 -15 -5 0 -11 7 -15 15 -3 9 0
15 9 15 8 0 15 -7 15 -15z m70 0 c0 -8 -7 -15 -15 -15 -8 0 -15 7 -15 15 0 8
7 15 15 15 8 0 15 -7 15 -15z m2230 0 c0 -8 -7 -15 -15 -15 -16 0 -20 12 -8
23 11 12 23 8 23 -8z m-2010 -55 c0 -5 -4 -10 -10 -10 -5 0 -10 5 -10 10 0 6
5 10 10 10 6 0 10 -4 10 -10z m1720 0 c0 -5 -4 -10 -10 -10 -5 0 -10 5 -10 10
0 6 5 10 10 10 6 0 10 -4 10 -10z m-1996 -21 c-3 -5 -10 -7 -15 -3 -5 3 -7 10
-3 15 3 5 10 7 15 3 5 -3 7 -10 3 -15z m366 -14 c-9 -11 -16 -13 -23 -6 -7 7
-6 15 3 26 9 11 16 13 23 6 7 -7 6 -15 -3 -26z m-444 11 c22 -17 11 -35 -13
-20 -19 12 -29 34 -16 34 5 0 18 -6 29 -14z m134 11 c0 -2 -9 -12 -20 -22 -17
-16 -20 -16 -20 -2 0 8 8 18 18 20 9 3 18 5 20 6 1 0 2 -1 2 -2z m1840 -12 c7
-8 8 -15 2 -15 -5 0 -15 7 -22 15 -7 8 -8 15 -2 15 5 0 15 -7 22 -15z m-1480
-25 c0 -5 -4 -10 -10 -10 -5 0 -10 5 -10 10 0 6 5 10 10 10 6 0 10 -4 10 -10z
m-629 -13 c-1 -12 -15 -9 -19 4 -3 6 1 10 8 8 6 -3 11 -8 11 -12z m1909 -19
c24 -27 30 -41 28 -73 -2 -55 -6 -64 -40 -81 -26 -14 -31 -13 -57 5 -44 32
-47 95 -6 157 21 32 38 30 75 -8z m-1720 3 c0 -6 -5 -13 -10 -16 -15 -9 -43 3
-35 15 8 13 45 13 45 1z m510 -44 c0 -19 -27 -53 -36 -44 -8 8 15 57 28 57 4
0 8 -6 8 -13z m1300 -13 c0 -8 5 -14 10 -14 6 0 10 5 10 10 0 6 7 10 15 10 8
0 15 -2 15 -4 0 -2 3 -11 6 -19 4 -12 -3 -15 -30 -15 -20 0 -36 3 -36 7 0 3
-3 17 -7 30 -4 17 -3 22 5 17 7 -4 12 -14 12 -22z m-1145 -13 c17 -33 22 -81
11 -99 -13 -22 -56 -13 -87 17 -41 42 -38 93 6 104 42 10 55 6 70 -22z m-205
5 c0 -15 -18 -31 -26 -23 -7 7 7 37 17 37 5 0 9 -6 9 -14z m1450 -26 c0 -5 -4
-10 -10 -10 -5 0 -10 5 -10 10 0 6 5 10 10 10 6 0 10 -4 10 -10z m-740 -160
c0 -68 -4 -91 -16 -101 -25 -21 -34 5 -34 102 0 89 11 119 37 98 9 -8 13 -39
13 -99z m522 28 c13 -11 27 -34 59 -100 5 -10 3 -27 -6 -45 -8 -15 -15 -34
-15 -40 0 -21 -48 -46 -75 -39 -27 7 -55 52 -55 88 1 45 48 148 68 148 5 0 15
-6 24 -12z m-1003 -154 c25 -32 27 -71 4 -96 -35 -39 -83 -10 -83 49 0 37 23
73 46 73 7 0 22 -12 33 -26z m-374 -14 c3 -5 14 -10 25 -10 29 0 31 -26 4 -74
-33 -59 -43 -64 -66 -36 -20 24 -23 51 -9 78 5 9 12 25 15 35 6 19 21 23 31 7z
m-66 -127 c16 -38 12 -123 -6 -130 -21 -8 -37 15 -57 76 -19 63 -16 69 45 80
4 0 12 -11 18 -26z m393 -37 c13 -31 5 -56 -20 -56 -24 0 -42 19 -42 46 0 39
45 46 62 10z m1026 -38 c17 -17 15 -42 -6 -61 -30 -27 -54 11 -36 57 7 19 25
21 42 4z"/>
<path d="M2967 2847 c-5 -24 -18 -45 -37 -59 -17 -12 -30 -29 -30 -37 0 -9 -9
-22 -21 -29 -19 -12 -20 -15 -5 -37 19 -28 20 -39 5 -30 -5 4 -3 -10 5 -30 9
-20 14 -41 11 -45 -3 -4 3 -7 13 -6 12 1 16 -5 15 -21 -4 -30 8 -28 32 5 17
22 21 46 23 137 2 61 2 128 0 150 l-3 40 -8 -38z m-47 -213 c0 -17 -22 -14
-28 4 -2 7 3 12 12 12 9 0 16 -7 16 -16z"/>
<path d="M2795 1910 c-3 -5 -1 -10 4 -10 6 0 11 5 11 10 0 6 -2 10 -4 10 -3 0
-8 -4 -11 -10z"/>
<path d="M2871 1324 c0 -11 3 -14 6 -6 3 7 2 16 -1 19 -3 4 -6 -2 -5 -13z"/>
<path d="M2870 1271 c0 -12 -5 -32 -11 -43 -18 -34 -29 -78 -18 -78 5 0 9 9 9
19 0 11 4 22 9 25 11 7 25 85 17 93 -3 4 -6 -4 -6 -16z"/>
<path d="M2923 779 c5 -38 30 -79 49 -79 4 0 8 16 8 35 0 19 -4 35 -10 35 -5
0 -10 7 -10 16 0 8 -4 12 -10 9 -5 -3 -10 1 -10 9 0 9 -5 16 -11 16 -8 0 -10
-14 -6 -41z"/>
<path d="M120 384 c0 -8 5 -12 10 -9 6 3 10 10 10 16 0 5 -4 9 -10 9 -5 0 -10
-7 -10 -16z"/>
<path d="M152 364 c-7 -14 -17 -22 -22 -19 -6 3 -10 2 -10 -3 0 -13 44 -52 60
-52 7 0 -2 -10 -21 -23 -23 -15 -35 -32 -37 -51 -4 -33 16 -78 32 -73 6 3 18
-2 28 -10 15 -13 18 -11 33 21 20 41 25 43 48 18 20 -22 21 -48 3 -81 -12 -21
-12 -30 2 -58 22 -46 45 -42 61 11 8 29 21 47 37 55 28 12 30 23 9 41 -8 7
-15 20 -15 29 0 9 -17 34 -37 56 -21 22 -36 46 -35 53 3 15 -94 112 -112 112
-7 0 -18 -12 -24 -26z"/>
<path d="M690 25 c0 -8 5 -15 10 -15 6 0 10 7 10 15 0 8 -4 15 -10 15 -5 0
-10 -7 -10 -15z"/>
</g>
</svg>
